<?xml version="1.0" encoding="utf-8"?>
<!-- Generator: Adobe Illustrator 16.0.4, SVG Export Plug-In . SVG Version: 6.00 Build 0)  -->
<!DOCTYPE svg PUBLIC "-//W3C//DTD SVG 1.1//EN" "http://www.w3.org/Graphics/SVG/1.1/DTD/svg11.dtd">
<svg version="1.1" id="Layer_1" xmlns="http://www.w3.org/2000/svg" xmlns:xlink="http://www.w3.org/1999/xlink" x="0px" y="0px"
	 width="100px" height="100px" viewBox="0 0 100 100" enable-background="new 0 0 100 100" xml:space="preserve">
<g>
	<path d="M0,0v100h100V0H0z M84,84H16V16h68V84z"/>
	<path d="M24.343,75.657C25.905,77.219,27.953,78,30,78s4.095-0.781,5.657-2.343L50,61.314l14.343,14.343
		C65.905,77.219,67.952,78,70,78s4.095-0.781,5.657-2.343c3.124-3.125,3.124-8.189,0-11.314L61.314,50l14.343-14.343
		c3.124-3.124,3.124-8.189,0-11.313c-3.125-3.124-8.189-3.124-11.314,0L50,38.686L35.657,24.343c-3.124-3.124-8.189-3.124-11.313,0
		c-3.125,3.124-3.125,8.189,0,11.313L38.686,50L24.343,64.343C21.219,67.468,21.219,72.532,24.343,75.657z"/>
</g>
</svg>
