<?xml version="1.0" encoding="utf-8"?>
<!-- Generator: Adobe Illustrator 16.0.4, SVG Export Plug-In . SVG Version: 6.00 Build 0)  -->
<!DOCTYPE svg PUBLIC "-//W3C//DTD SVG 1.1//EN" "http://www.w3.org/Graphics/SVG/1.1/DTD/svg11.dtd">
<svg version="1.1" id="Layer_1" xmlns="http://www.w3.org/2000/svg" xmlns:xlink="http://www.w3.org/1999/xlink" x="0px" y="0px"
	 width="80px" height="80px" viewBox="0 0 80 80" enable-background="new 0 0 80 80" xml:space="preserve">
<g>
	<polygon points="24.697,63.943 40,48.643 55.301,63.943 63.943,55.302 48.641,40 63.943,24.699 55.3,16.058 39.999,31.357 
		24.698,16.056 16.057,24.702 31.357,40 16.056,55.302 	"/>
	<path d="M70,0H10C4.5,0,0,4.5,0,10v60c0,5.5,4.5,10,10,10h60c5.5,0,10-4.5,10-10V10C80,4.5,75.5,0,70,0z M70,70H10V10h60V70z"/>
</g>
</svg>
